{
  "accessors": [
    {
      "bufferView": 2,
      "componentType": 5126,
      "count": 2310,
      "max": [
        4.91583251953125,
        1.6939773559570313,
        4.734073638916016
      ],
      "min": [
        -4.993842124938965,
        -0.5062634348869324,
        -5.154569149017334
      ],
      "type": "VEC3"
    },
    {
      "bufferView": 2,
      "byteOffset": 27720,
      "componentType": 5126,
      "count": 2310,
      "max": [
        0.9968140125274658,
        0.9999829530715942,
        0.9967429041862488
      ],
      "min": [
        -0.9996457695960999,
        -0.9999875426292419,
        -0.9969378709793091
      ],
      "type": "VEC3"
    },
    {
      "bufferView": 1,
      "componentType": 5126,
      "count": 2310,
      "max": [
        0.9779917001724243,
        0.9639118313789368
      ],
      "min": [
        0.04811286926269531,
        0.03890502452850342
      ],
      "type": "VEC2"
    },
    {
      "bufferView": 0,
      "componentType": 5125,
      "count": 12408,
      "type": "SCALAR"
    }
  ],
  "asset": {
    "extras": {
      "author": "rabbiturnal (https://sketchfab.com/rabbiturnal)",
      "license": "CC-BY-4.0 (http://creativecommons.org/licenses/by/4.0/)",
      "source": "https://sketchfab.com/3d-models/glowing-mushroom-cfc2172e2c414b708d8eadcd38d27b0c",
      "title": "Glowing Mushroom"
    },
    "generator": "Sketchfab-13.44.0",
    "version": "2.0"
  },
  "bufferViews": [
    {
      "buffer": 0,
      "byteLength": 49632,
      "name": "floatBufferViews",
      "target": 34963
    },
    {
      "buffer": 0,
      "byteLength": 18480,
      "byteOffset": 49632,
      "byteStride": 8,
      "name": "floatBufferViews",
      "target": 34962
    },
    {
      "buffer": 0,
      "byteLength": 55440,
      "byteOffset": 68112,
      "byteStride": 12,
      "name": "floatBufferViews",
      "target": 34962
    }
  ],
  "buffers": [
    {
      "byteLength": 123552,
      "uri": "scene.bin"
    }
  ],
  "images": [
    {
      "uri": "textures/standardSurface2_baseColor.png"
    },
    {
      "uri": "textures/standardSurface2_emissive.png"
    }
  ],
  "materials": [
    {
      "doubleSided": true,
      "emissiveFactor": [
        1.0,
        1.0,
        1.0
      ],
      "emissiveTexture": {
        "index": 1
      },
      "name": "standardSurface2",
      "pbrMetallicRoughness": {
        "baseColorTexture": {
          "index": 0
        },
        "metallicFactor": 0.0,
        "roughnessFactor": 0.578896491711482
      }
    }
  ],
  "meshes": [
    {
      "name": "pCube1_standardSurface2_0",
      "primitives": [
        {
          "attributes": {
            "NORMAL": 1,
            "POSITION": 0,
            "TEXCOORD_0": 2
          },
          "indices": 3,
          "material": 0,
          "mode": 4
        }
      ]
    }
  ],
  "nodes": [
    {
      "children": [
        1
      ],
      "matrix": [
        5.472432613372803,
        0.0,
        0.0,
        0.0,
        0.0,
        1.2151241376152206e-15,
        -5.472432613372803,
        0.0,
        0.0,
        5.472432613372803,
        1.2151241376152206e-15,
        0.0,
        0.0,
        0.0,
        0.0,
        1.0
      ],
      "name": "Sketchfab_model"
    },
    {
      "children": [
        2
      ],
      "matrix": [
        0.009999999776482582,
        0.0,
        0.0,
        0.0,
        0.0,
        0.0,
        0.009999999776482582,
        0.0,
        0.0,
        -0.009999999776482582,
        0.0,
        0.0,
        0.0,
        0.0,
        0.0,
        1.0
      ],
      "name": "650175e067a44b6fbb31c549a9f6a411.fbx"
    },
    {
      "children": [
        3
      ],
      "name": "RootNode"
    },
    {
      "children": [
        4
      ],
      "matrix": [
        3.7672533988952637,
        0.0,
        0.0,
        0.0,
        0.0,
        26.31114387512172,
        4.2866295817672825e-06,
        0.0,
        0.0,
        -6.137635041016572e-07,
        3.7672533988952135,
        0.0,
        0.0,
        13.255757331848145,
        0.46865856647491455,
        1.0
      ],
      "name": "pCube1"
    },
    {
      "mesh": 0,
      "name": "pCube1_standardSurface2_0"
    }
  ],
  "samplers": [
    {
      "magFilter": 9729,
      "minFilter": 9987,
      "wrapS": 10497,
      "wrapT": 10497
    }
  ],
  "scene": 0,
  "scenes": [
    {
      "name": "Sketchfab_Scene",
      "nodes": [
        0
      ]
    }
  ],
  "textures": [
    {
      "sampler": 0,
      "source": 0
    },
    {
      "sampler": 0,
      "source": 1
    }
  ]
}
